Patient4_TMGait_0pt3_02_left_15_GRF.mot
version=1
nRows=58
nColumns=19
inDegrees=no
endheader
time	F1x	F1y	F1z	M1x	M1y	M1z	F2x	F2y	F2z	M2x	M2y	M2z	EC1x	EC1y	EC1z	EC2x	EC2y	EC2z
29.01	0.88131	0.64892	-3.4684	-0.40848	2.2944	2.6003	-13.3817	705.3629	-47.5398	267.1138	54.2213	703.8498	-0.0592	0.0182	-0.0073	-0.0462	0.0165	0.9585
29.029	0.61125	0.52985	-2.3045	-0.31419	1.5019	1.9659	-11.7015	708.2544	-46.8243	268.8952	53.1628	704.1479	-0.0592	0.0182	-0.0073	-0.0462	0.0165	0.9585
29.048	0.37124	0.44641	-1.3238	-0.23728	0.83935	1.4381	-10.3801	716.6311	-45.7202	273.1092	51.8069	709.0114	-0.0592	0.0182	-0.0073	-0.0462	0.0165	0.9585
29.067	0.17637	0.40343	-0.58047	-0.18491	0.33728	1.0489	-9.672	732.4107	-44.3311	280.4659	50.3247	720.3723	-0.0592	0.0182	-0.0073	-0.0462	0.0165	0.9585
29.086	0.0293	0.39361	-0.067805	-0.1562	-0.011763	0.79473	-9.7424	756.6431	-42.8419	291.285	48.9433	739.374	-0.0592	0.0182	-0.0073	-0.0462	0.0165	0.9585
29.105	-0.074746	0.40369	0.25114	-0.14393	-0.23404	0.6405	-10.6266	788.9568	-41.4663	305.3026	47.8746	765.8084	-0.0592	0.0182	-0.0073	-0.0462	0.0165	0.9585
29.124	-0.14473	0.41385	0.42322	-0.13669	-0.36175	0.53548	-12.1798	827.2167	-40.3894	321.5667	47.2355	797.7665	-0.0592	0.0182	-0.0073	-0.0462	0.0165	0.9585
29.143	-0.19397	0.39191	0.4962	-0.1206	-0.4276	0.43	-14.0597	867.6199	-39.7165	338.4928	46.9944	831.7186	-0.0592	0.0182	-0.0073	-0.0462	0.0165	0.9585
29.162	-0.23745	0.28851	0.51001	-0.076392	-0.4593	0.26371	-15.8204	905.2721	-39.4516	354.0981	46.9893	863.0826	-0.0592	0.0182	-0.0073	-0.0462	0.0165	0.9585
29.181	-0.28671	0.041044	0.49284	0.020391	-0.47599	-0.035156	-17.0525	935.0587	-39.507	366.3441	46.9876	887.0792	-0.0592	0.0182	-0.0073	-0.0462	0.0165	0.9585
29.2	-0.34809	-0.41643	0.4607	0.19498	-0.48604	-0.53864	-17.4675	952.6721	-39.7372	373.5379	46.7496	899.7193	-0.0592	0.0182	-0.0073	-0.0462	0.0165	0.9585
29.219	-0.41944	-1.1472	0.41756	0.46983	-0.48814	-1.3157	-16.9118	955.4492	-39.9901	374.6559	46.0854	898.5824	-0.0592	0.0182	-0.0073	-0.0462	0.0165	0.9585
29.238	-0.48544	-2.1959	0.35684	0.85964	-0.46811	-2.4147	-15.3493	942.8027	-40.1396	369.5074	44.8806	883.1945	-0.0592	0.0182	-0.0073	-0.0462	0.0165	0.9585
29.257	-0.51277	-3.5594	0.26416	1.3638	-0.39863	-3.831	-12.8449	916.2	-40.1168	358.718	43.1162	854.9884	-0.0592	0.0182	-0.0073	-0.0462	0.0165	0.9585
29.276	-0.44999	-5.1471	0.1206	1.9491	-0.24325	-5.4718	-9.5597	878.7592	-39.9257	343.5617	40.876	816.9135	-0.0592	0.0182	-0.0073	-0.0462	0.0165	0.9585
29.295	-0.2271	-6.732	-0.088719	2.5298	0.039668	-7.1099	-5.721	834.6439	-39.632	325.7179	38.3232	772.8579	-0.0592	0.0182	-0.0073	-0.0462	0.0165	0.9585
29.314	0.24081	-7.8927	-0.37041	2.947	0.49184	-8.3108	-1.599	788.3748	-39.3355	307.0007	35.6721	727.0023	-0.0592	0.0182	-0.0073	-0.0462	0.0165	0.9585
29.333	1.0434	-7.959	-0.71621	2.9477	1.1412	-8.3772	2.5325	744.1583	-39.1386	289.098	33.139	683.1947	-0.0592	0.0182	-0.0073	-0.0462	0.0165	0.9585
29.352	2.2589	-5.9748	-1.0918	2.1696	1.9812	-6.3121	6.4393	705.3546	-39.1086	273.3623	30.8907	644.4753	-0.0592	0.0182	-0.0073	-0.0462	0.0165	0.9585
29.371	3.93	-0.69574	-1.4217	0.14263	2.9446	-0.81343	9.9554	674.1154	-39.259	260.6664	29.0148	612.7545	-0.0592	0.0182	-0.0073	-0.0462	0.0165	0.9585
29.39	6.0171	9.3341	-1.5783	-3.681	3.8745	9.6405	12.9796	651.195	-39.5587	251.3282	27.5292	588.6635	-0.0592	0.0182	-0.0073	-0.0462	0.0165	0.9585
29.409	8.3318	25.5712	-1.3696	-9.8459	4.4902	26.5763	15.4635	635.9459	-39.9289	245.1111	26.3907	571.5789	-0.0592	0.0182	-0.0073	-0.0462	0.0165	0.9585
29.428	10.4565	49.1019	-0.53789	-18.7518	4.3541	51.1445	17.3838	626.4884	-40.2364	241.2913	25.5015	559.8064	-0.0592	0.0182	-0.0073	-0.0462	0.0165	0.9585
29.447	11.6178	80.1568	1.1902	-30.4723	2.8822	83.6112	18.7099	620.0433	-40.309	238.7875	24.7334	550.8953	-0.0592	0.0182	-0.0073	-0.0462	0.0165	0.9585
29.466	11.0027	117.8663	4.0397	-44.6634	-0.46246	123.1016	19.3848	613.3824	-39.9785	236.335	23.9689	542.0428	-0.0592	0.0182	-0.0073	-0.0462	0.0165	0.9585
29.485	8.5163	160.5853	8.0888	-60.6855	-5.7871	167.892	19.3335	603.3354	-39.1277	232.6815	23.1412	530.5336	-0.0592	0.0182	-0.0073	-0.0462	0.0165	0.9585
29.504	4.6138	206.0302	13.1546	-77.6736	-12.7085	215.5044	18.5087	587.2672	-37.7092	226.7736	22.2307	514.1271	-0.0592	0.0182	-0.0073	-0.0462	0.0165	0.9585
29.523	-0.019743	251.9937	18.6684	-94.8228	-20.3321	263.4731	16.9439	563.5345	-35.7385	217.9412	21.2379	491.4342	-0.0592	0.0182	-0.0073	-0.0462	0.0165	0.9585
29.542	-4.7109	297.3309	23.8803	-111.7453	-27.5714	310.4281	14.7667	531.7551	-33.3021	206.0045	20.1796	462.1454	-0.0592	0.0182	-0.0073	-0.0462	0.0165	0.9585
29.561	-8.8802	341.8284	28.2988	-128.3896	-33.6666	355.9949	12.1759	492.6393	-30.536	191.2103	19.0805	426.8706	-0.0592	0.0182	-0.0073	-0.0462	0.0165	0.9585
29.58	-12.098	385.4283	31.7597	-144.7344	-38.2729	400.0051	9.3803	447.6291	-27.5993	174.0937	17.9763	386.8396	-0.0592	0.0182	-0.0073	-0.0462	0.0165	0.9585
29.599	-14.1477	427.7978	34.4287	-160.6256	-41.4845	442.0677	6.5511	398.5701	-24.6712	155.3491	16.9289	343.6277	-0.0592	0.0182	-0.0073	-0.0462	0.0165	0.9585
29.618	-15.0339	468.3979	36.6801	-175.8165	-43.7121	481.6418	3.8068	347.4676	-21.9257	135.7385	16.0149	298.9464	-0.0592	0.0182	-0.0073	-0.0462	0.0165	0.9585
29.637	-14.9179	506.8176	38.8689	-190.1175	-45.4145	518.3547	1.2189	296.3322	-19.4803	116.0349	15.288	254.5064	-0.0592	0.0182	-0.0073	-0.0462	0.0165	0.9585
29.656	-14.0297	542.8869	41.1497	-203.4559	-46.8741	552.095	-1.1796	247.0814	-17.3735	96.984	14.7555	211.9279	-0.0592	0.0182	-0.0073	-0.0462	0.0165	0.9585
29.675	-12.5852	576.4531	43.4278	-215.7988	-48.113	582.7777	-3.3762	201.4702	-15.5891	79.2758	14.3924	172.6753	-0.0592	0.0182	-0.0073	-0.0462	0.0165	0.9585
29.694	-10.7399	607.1193	45.4202	-227.0477	-48.9368	610.0821	-5.3538	161.0651	-14.0986	63.5315	14.1633	138.0362	-0.0592	0.0182	-0.0073	-0.0462	0.0165	0.9585
29.713	-8.5816	634.1557	46.774	-236.9896	-49.0515	633.3612	-7.058	127.1744	-12.8947	50.2748	14.032	109.0713	-0.0592	0.0182	-0.0073	-0.0462	0.0165	0.9585
29.732	-6.1419	656.6001	47.1819	-245.3214	-48.1843	651.7412	-8.3915	100.701	-11.9898	39.8714	13.9599	86.4897	-0.0592	0.0182	-0.0073	-0.0462	0.0165	0.9585
29.751	-3.4186	673.5093	46.4562	-251.7336	-46.165	664.3737	-9.2388	81.971	-11.3761	32.4634	13.8879	70.5138	-0.0592	0.0182	-0.0073	-0.0462	0.0165	0.9585
29.77	-0.41081	684.2528	44.5657	-256.0106	-42.9737	670.7376	-9.5114	70.5857	-10.9956	27.9085	13.7333	60.7693	-0.0592	0.0182	-0.0073	-0.0462	0.0165	0.9585
29.789	2.851	688.7587	41.6538	-258.1173	-38.7614	670.8781	-9.1858	65.3831	-10.7583	25.7626	13.4174	56.2469	-0.0592	0.0182	-0.0073	-0.0462	0.0165	0.9585
29.808	6.2999	687.6687	38.0354	-258.2562	-33.848	665.5475	-8.2886	64.5219	-10.5821	25.3135	12.8923	55.3695	-0.0592	0.0182	-0.0073	-0.0462	0.0165	0.9585
29.827	9.8143	682.3243	34.1605	-256.8646	-28.6976	656.1897	-6.9248	65.8198	-10.4018	25.7137	12.1534	56.2835	-0.0592	0.0182	-0.0073	-0.0462	0.0165	0.9585
29.846	13.2064	674.6141	30.5253	-254.5694	-23.8398	644.7819	-5.2921	67.2485	-10.1603	26.1752	11.2396	57.2755	-0.0592	0.0182	-0.0073	-0.0462	0.0165	0.9585
29.865	16.2456	666.6909	27.574	-252.1004	-19.7738	633.5442	-3.6411	67.3125	-9.8153	26.1183	10.2214	57.0998	-0.0592	0.0182	-0.0073	-0.0462	0.0165	0.9585
29.884	18.6872	660.666	25.6144	-250.195	-16.8813	624.6264	-2.2241	65.2121	-9.3474	25.2352	9.1853	55.1097	-0.0592	0.0182	-0.0073	-0.0462	0.0165	0.9585
29.903	20.3079	658.3226	24.7634	-249.4974	-15.358	619.82	-1.231	60.8197	-8.7524	23.4799	8.2051	51.2263	-0.0592	0.0182	-0.0073	-0.0462	0.0165	0.9585
29.922	20.9524	660.9099	24.9687	-250.4784	-15.2125	620.3459	-0.73999	54.5236	-8.0317	21.0053	7.3161	45.7923	-0.0592	0.0182	-0.0073	-0.0462	0.0165	0.9585
29.941	20.5547	669.1445	26.0578	-253.4255	-16.3016	626.8536	-0.71691	46.9915	-7.1967	18.0696	6.5196	39.3775	-0.0592	0.0182	-0.0073	-0.0462	0.0165	0.9585
29.96	19.1337	683.315	27.8097	-258.4705	-18.3993	639.5366	-1.0364	38.9309	-6.2709	14.9453	5.793	32.5805	-0.0592	0.0182	-0.0073	-0.0462	0.0165	0.9585
29.979	16.8098	703.3334	30.0185	-265.5996	-21.2549	658.1895	-1.5144	30.9325	-5.2813	11.8576	5.0913	25.8923	-0.0592	0.0182	-0.0073	-0.0462	0.0165	0.9585
29.998	13.8287	728.6782	32.5108	-274.6313	-24.6026	682.1723	-1.9445	23.4166	-4.2537	8.9648	4.358	19.6565	-0.0592	0.0182	-0.0073	-0.0462	0.0165	0.9585
30.017	10.5312	758.2567	35.1517	-285.1628	-28.1828	710.2902	-2.1386	16.6679	-3.2162	6.3747	3.5426	14.0975	-0.0592	0.0182	-0.0073	-0.0462	0.0165	0.9585
30.036	7.2798	790.3885	37.843	-296.5647	-31.7668	740.7939	-1.9884	10.9232	-2.2155	4.1761	2.6372	9.3885	-0.0592	0.0182	-0.0073	-0.0462	0.0165	0.9585
30.055	4.3865	822.9307	40.5013	-308.0356	-35.1637	771.5175	-1.578	6.4159	-1.3333	2.454	1.7365	5.7067	-0.0592	0.0182	-0.0073	-0.0462	0.0165	0.9585
30.074	2.0557	853.4997	43.0321	-318.6922	-38.2148	800.0945	-1.0809	3.2152	-0.63819	1.2317	0.96249	3.1053	-0.0592	0.0182	-0.0073	-0.0462	0.0165	0.9585
30.093	0.40081	879.7275	45.3131	-327.6738	-40.7653	824.2001	-0.60827	1.1828	-0.13929	0.45545	0.36567	1.4663	-0.0592	0.0182	-0.0073	-0.0462	0.0165	0.9585
